<?xml version="1.0" standalone="no"?>
<!DOCTYPE svg PUBLIC "-//W3C//DTD SVG 20010904//EN"
 "http://www.w3.org/TR/2001/REC-SVG-20010904/DTD/svg10.dtd">
<svg version="1.0" xmlns="http://www.w3.org/2000/svg"
 width="700.000000pt" height="700.000000pt" viewBox="0 0 700.000000 700.000000"
 preserveAspectRatio="xMidYMid meet">
<metadata>
Created by potrace 1.11, written by Peter Selinger 2001-2013
</metadata>
<g transform="translate(0.000000,700.000000) scale(0.100000,-0.100000)"
fill="#000000" stroke="none">
<path d="M3269 6886 c-2 -2 -42 -7 -89 -11 -47 -4 -92 -9 -101 -10 -9 -2 -40
-6 -70 -10 -212 -25 -521 -109 -766 -206 -277 -110 -519 -246 -772 -432 -218
-160 -491 -429 -648 -637 -98 -129 -143 -190 -143 -194 0 -3 -17 -31 -39 -63
-132 -200 -270 -489 -356 -746 -38 -114 -96 -328 -110 -407 -10 -57 -15 -86
-19 -106 -2 -12 -8 -45 -11 -75 -4 -30 -9 -65 -11 -79 -26 -172 -25 -656 1
-830 2 -14 6 -45 10 -70 64 -453 230 -903 480 -1305 361 -582 909 -1051 1545
-1323 118 -51 298 -116 360 -132 19 -4 78 -20 130 -34 96 -25 265 -59 353 -71
27 -4 58 -8 68 -10 139 -27 652 -27 839 0 269 39 383 65 630 142 207 65 511
202 671 303 35 22 76 47 92 55 42 24 226 153 282 199 172 140 356 317 470 451
33 39 62 72 65 75 48 46 243 331 319 468 57 100 174 341 186 382 4 14 11 30
15 35 8 11 108 300 114 331 2 11 12 48 21 84 9 36 19 74 21 85 2 11 8 40 14
65 12 57 33 182 44 265 17 126 20 203 21 420 0 132 -4 274 -8 315 -5 41 -10
91 -12 110 -3 31 -14 103 -30 195 -3 17 -12 62 -21 100 -9 39 -18 80 -20 92
-16 83 -98 335 -157 483 -30 76 -151 321 -200 405 -147 255 -317 475 -527 685
-228 228 -396 363 -646 516 -95 58 -393 214 -409 214 -3 0 -24 9 -48 19 -129
59 -437 156 -592 187 -76 15 -136 25 -170 30 -22 3 -49 7 -61 9 -11 2 -45 7
-75 10 -30 4 -67 9 -84 12 -34 6 -551 14 -556 9z m704 -1446 c75 -51 72 -18
72 -742 l0 -648 125 -1 c69 0 358 0 643 0 555 0 560 -1 607 -51 49 -53 49 -54
50 -484 0 -242 -4 -420 -10 -442 -11 -44 -64 -99 -106 -111 -16 -4 -314 -8
-662 -8 -347 0 -635 -3 -638 -6 -4 -4 -7 -298 -8 -655 l-1 -649 -28 -36 c-57
-75 -34 -72 -494 -75 -259 -2 -427 1 -451 7 -44 12 -99 65 -111 107 -4 16 -8
316 -7 667 1 418 -2 637 -9 638 -5 0 -296 1 -645 1 -411 1 -644 5 -660 11 -38
16 -81 58 -96 94 -11 26 -14 115 -14 435 0 420 4 462 43 499 60 57 15 54 719
55 357 1 652 4 655 8 3 3 6 293 6 645 0 595 2 642 18 676 20 41 39 59 84 80
25 12 103 14 456 12 l425 -2 37 -25z"/>
</g>
</svg>
